<svg xmlns="http://www.w3.org/2000/svg" xmlns:xlink="http://www.w3.org/1999/xlink" width="500" zoomAndPan="magnify" viewBox="0 0 375 374.999991" height="500" preserveAspectRatio="xMidYMid meet" version="1.2"><defs><clipPath id="684ae49a71"><path d="M 13.464844 150 L 118 150 L 118 224 L 13.464844 224 Z M 13.464844 150 "/></clipPath><clipPath id="1f4088d76c"><path d="M 67 154 L 127.464844 154 L 127.464844 229.757812 L 67 229.757812 Z M 67 154 "/></clipPath><clipPath id="5454c9a669"><path d="M 80 227 L 84 227 L 84 229.757812 L 80 229.757812 Z M 80 227 "/></clipPath><clipPath id="a54a4bdce4"><path d="M 106 145.007812 L 110 145.007812 L 110 149 L 106 149 Z M 106 145.007812 "/></clipPath><clipPath id="d699373fd1"><rect x="0" width="177" y="0" height="17"/></clipPath><clipPath id="c56e6ed59d"><rect x="0" width="178" y="0" height="40"/></clipPath></defs><g id="685a0a6ed9"><rect x="0" width="375" y="0" height="374.999991" style="fill:#ffffff;fill-opacity:1;stroke:none;"/><rect x="0" width="375" y="0" height="374.999991" style="fill:#100f0f;fill-opacity:1;stroke:none;"/><g clip-rule="nonzero" clip-path="url(#684ae49a71)"><path style=" stroke:none;fill-rule:nonzero;fill:#ffffff;fill-opacity:1;" d="M 116.890625 182.113281 C 116.71875 181.042969 116.28125 179.359375 115.761719 178.441406 C 108.914062 166.621094 81.199219 175.609375 72.191406 183.433594 C 68.136719 186.953125 72.421875 189.804688 71.082031 188.351562 C 69.953125 187.203125 71.328125 185.367188 72.648438 184.449219 C 81.179688 178.5 91.546875 175.191406 101.953125 175.113281 C 104.9375 175.09375 108.246094 175.457031 110.273438 177.675781 C 111.460938 178.957031 112.320312 180.757812 112.089844 182.535156 C 110.195312 198.125 85.867188 207.804688 75.230469 210.882812 C 64.597656 213.960938 53.484375 214.460938 42.925781 211.113281 C 39.042969 209.886719 33.742188 205.621094 32.25 201.835938 C 31.277344 199.308594 31.640625 196.421875 32.5 193.859375 C 34.566406 187.71875 39.273438 182.859375 44.207031 178.652344 C 62.53125 163.007812 90.898438 150.402344 115.589844 150.265625 C 91.988281 150.054688 69.875 156.980469 49.390625 168.9375 C 60.5625 160.5 71.347656 154.875 85.808594 151.394531 C 68.976562 153.710938 53.121094 162.105469 39.882812 172.742188 C 34.949219 176.71875 30.070312 180.949219 26.589844 186.265625 C 23.109375 191.582031 21.15625 198.164062 22.554688 204.339844 C 23.949219 210.539062 29.25 216.007812 35.597656 216.371094 C 27.929688 216.773438 20.144531 214.402344 13.984375 209.832031 C 16.203125 217.042969 24.449219 220.410156 31.851562 221.824219 C 53.730469 226.03125 84.085938 219.738281 103.0625 204.492188 C 109.070312 199.691406 118.421875 192.0625 116.890625 182.113281 Z M 116.890625 182.113281 "/></g><path style=" stroke:none;fill-rule:nonzero;fill:#ffffff;fill-opacity:1;" d="M 115.589844 150.265625 C 116.453125 150.265625 117.3125 150.265625 118.191406 150.304688 C 117.332031 150.265625 116.472656 150.265625 115.589844 150.265625 Z M 115.589844 150.265625 "/><path style=" stroke:none;fill-rule:nonzero;fill:#ffffff;fill-opacity:1;" d="M 99.65625 176.375 C 98.394531 176.375 95.773438 176.472656 94.53125 176.664062 C 89.445312 177.429688 75.652344 179.398438 72.421875 188.5625 C 74.332031 185.730469 77.144531 183.585938 80.300781 182.304688 C 78.425781 183.242188 76.722656 184.371094 75.347656 185.632812 C 82.328125 182.230469 87.417969 182.152344 92.542969 183.453125 C 93.25 183.625 93.804688 183.855469 94.226562 184.121094 C 94.683594 184.5625 95.066406 185.078125 95.335938 185.671875 C 95.71875 188.980469 87.589844 194.300781 85.464844 195.484375 C 81.296875 197.800781 76.683594 199.195312 72.039062 200.246094 C 68.84375 200.972656 65.535156 201.546875 62.320312 200.957031 C 59.105469 200.363281 55.96875 198.375 54.824219 195.3125 C 53.921875 192.882812 54.382812 190.109375 55.53125 187.796875 C 56.660156 185.460938 58.417969 183.511719 60.179688 181.597656 C 55.109375 183.816406 51.417969 188.273438 47.917969 192.578125 C 49.5625 182.613281 56.410156 173.660156 65.609375 169.472656 C 54.554688 171.710938 44.457031 178.347656 38.027344 187.625 C 36.210938 190.242188 34.660156 193.132812 34.222656 196.289062 C 33.742188 199.636719 34.605469 203.175781 36.574219 205.929688 C 35.925781 203.136719 36.421875 200.113281 37.933594 197.683594 C 37.417969 199.464844 38.164062 201.414062 39.425781 202.753906 C 40.6875 204.09375 42.410156 204.914062 44.128906 205.566406 C 50.328125 207.9375 57.058594 208.605469 63.679688 208.378906 C 71.101562 208.109375 78.539062 206.675781 85.199219 203.382812 C 89.941406 201.03125 96.617188 196.726562 99.828125 191.582031 C 98.605469 194.871094 96.367188 197.78125 93.5 199.769531 C 99.773438 197.492188 105.339844 192.269531 106.332031 185.671875 C 106.542969 184.296875 106.542969 182.878906 106.105469 181.558594 C 105.644531 180.257812 104.6875 179.074219 103.386719 178.574219 C 105.300781 178.710938 107.195312 179.1875 108.914062 179.992188 C 106.429688 177.695312 103.0625 176.355469 99.65625 176.375 Z M 99.65625 176.375 "/><path style=" stroke:none;fill-rule:nonzero;fill:#ffffff;fill-opacity:1;" d="M 74.734375 195.0625 C 73.148438 195.234375 71.464844 194.910156 70.238281 193.917969 C 68.996094 192.921875 68.328125 191.160156 68.824219 189.652344 C 67.734375 191.257812 68.117188 193.6875 69.644531 194.871094 C 66.71875 194.472656 64.023438 192.519531 62.816406 189.824219 C 61.613281 187.125 61.976562 183.777344 63.8125 181.464844 C 61.707031 183.070312 59.679688 184.867188 58.417969 187.203125 C 57.15625 189.535156 56.8125 192.480469 58.074219 194.796875 C 57.863281 193.113281 58.285156 191.371094 59.261719 189.996094 C 58.933594 191.679688 59.335938 193.496094 60.332031 194.890625 C 64.308594 200.496094 74.199219 198.046875 79.34375 195.789062 C 81.21875 194.96875 82.996094 193.9375 84.625 192.691406 C 85.542969 192.003906 86.441406 191.21875 86.9375 190.167969 C 87.417969 189.117188 87.398438 187.757812 86.59375 186.933594 C 86.097656 186.4375 85.40625 186.1875 84.71875 186.054688 C 81.277344 185.347656 77.660156 186.667969 74.925781 188.867188 C 74.292969 189.382812 73.683594 189.957031 73.300781 190.664062 C 73.109375 191.007812 72.976562 191.390625 73.03125 191.792969 C 73.148438 192.691406 74.179688 193.171875 75.097656 193.265625 C 76.148438 193.378906 77.238281 193.207031 78.214844 192.769531 C 77.335938 192.960938 76.359375 192.710938 75.691406 192.097656 C 75.328125 191.773438 75.058594 191.335938 75.039062 190.855469 C 74.984375 189.671875 76.304688 188.960938 77.414062 188.5625 C 78.160156 188.292969 78.921875 188.023438 79.6875 188.101562 C 80.472656 188.179688 81.257812 188.734375 81.332031 189.515625 C 81.371094 189.957031 81.199219 190.378906 80.988281 190.761719 C 79.726562 193.113281 77.316406 194.757812 74.734375 195.0625 Z M 74.734375 195.0625 "/><path style=" stroke:none;fill-rule:nonzero;fill:#ffffff;fill-opacity:1;" d="M 71.789062 168.589844 C 69.722656 169.453125 67.773438 170.582031 65.820312 171.691406 C 58.167969 176.050781 54.898438 181.042969 52.910156 183.300781 C 56.851562 178.804688 62.226562 175.859375 67.636719 173.296875 C 73.300781 170.617188 79.25 168.246094 85.503906 168 C 82.386719 168.746094 79.191406 169.527344 76.476562 171.269531 C 86.019531 168.207031 96.175781 167.691406 106.199219 167.234375 C 98.910156 165.261719 91.222656 164.863281 83.78125 166.027344 C 87.417969 164.746094 91.183594 163.886719 95.011719 163.445312 C 87.035156 163.332031 79.171875 165.53125 71.789062 168.589844 Z M 71.789062 168.589844 "/><path style=" stroke:none;fill-rule:nonzero;fill:#ffffff;fill-opacity:1;" d="M 16.300781 203.632812 C 15.859375 205.449219 19.09375 208.914062 20.257812 209.984375 C 21.597656 211.207031 23.914062 212.949219 25.804688 212.929688 C 24.101562 211.53125 22.957031 210.347656 22.074219 208.703125 C 20.375 205.546875 20.296875 201.242188 20.832031 197.78125 C 21.558594 193.074219 23.664062 188.675781 26.207031 184.660156 C 21.941406 189.058594 17.464844 193.898438 16.605469 199.980469 C 15.9375 197.320312 16.128906 194.453125 17.160156 191.90625 C 13.871094 196.554688 13.546875 203.117188 16.375 208.050781 C 15.972656 206.617188 15.953125 205.085938 16.300781 203.632812 Z M 16.300781 203.632812 "/><path style=" stroke:none;fill-rule:nonzero;fill:#ffffff;fill-opacity:1;" d="M 29.59375 177.449219 L 29.785156 173.164062 L 34.089844 172.953125 L 29.785156 172.761719 L 29.59375 168.457031 L 29.382812 172.761719 L 25.097656 172.953125 L 29.382812 173.164062 Z M 29.59375 177.449219 "/><g clip-rule="nonzero" clip-path="url(#1f4088d76c)"><path style=" stroke:none;fill-rule:nonzero;fill:#ffffff;fill-opacity:1;" d="M 127.640625 166.964844 L 118.613281 166.542969 L 118.289062 159.753906 C 121.40625 160.003906 124.523438 160.328125 127.621094 160.730469 C 124.5625 159.640625 121.40625 158.816406 118.210938 158.222656 L 118.171875 157.515625 L 118.136719 158.203125 C 113.699219 157.402344 109.183594 157.113281 104.6875 157.34375 C 109.488281 155.851562 114.425781 154.78125 119.417969 154.167969 C 111.132812 154.035156 102.910156 155.507812 94.742188 156.960938 C 89.941406 157.824219 85.253906 158.816406 80.644531 160.460938 C 78.253906 161.324219 74.199219 162.296875 71.40625 163.769531 C 81.066406 160.136719 89.980469 158.492188 100.289062 158.148438 C 98.546875 158.203125 96.808594 158.605469 95.199219 159.3125 C 102.8125 158.96875 110.464844 159.125 118.058594 159.714844 L 117.753906 166.527344 L 108.722656 166.945312 L 117.753906 167.367188 L 117.980469 172.167969 C 115.34375 170.199219 111.804688 169.566406 108.476562 169.527344 C 104.746094 169.492188 96.445312 170.425781 84.453125 175.210938 C 93.328125 172.28125 105.089844 168.9375 112.300781 171.671875 C 114.730469 172.589844 116.757812 174.082031 118.171875 176.011719 L 118.191406 176.394531 L 118.210938 176.050781 C 119.300781 177.5625 120.027344 179.339844 120.277344 181.347656 C 120.851562 185.960938 119.4375 190.625 117.253906 194.738281 C 112.570312 203.652344 104.496094 210.441406 95.601562 215.167969 C 86.707031 219.890625 76.933594 222.703125 67.179688 225.246094 C 79 224.617188 90.726562 222.320312 101.914062 218.398438 C 97.628906 223.027344 92.601562 226.949219 87.089844 229.992188 C 104.613281 226.492188 120.21875 212.929688 124.332031 195.523438 C 125.308594 191.449219 125.632812 187.085938 124.292969 183.109375 C 124.121094 186.378906 123.164062 189.613281 121.539062 192.460938 C 122.457031 189.132812 123.148438 185.691406 122.898438 182.25 C 122.648438 178.804688 121.40625 175.34375 118.917969 172.953125 C 118.746094 172.78125 118.554688 172.644531 118.382812 172.492188 L 118.613281 167.367188 Z M 127.640625 166.964844 "/></g><path style=" stroke:none;fill-rule:nonzero;fill:#ffffff;fill-opacity:1;" d="M 45.390625 158.835938 C 46.675781 158.835938 47.726562 157.785156 47.726562 156.503906 C 47.726562 155.222656 46.675781 154.167969 45.390625 154.167969 C 44.109375 154.167969 43.058594 155.222656 43.058594 156.503906 C 43.058594 157.785156 44.09375 158.835938 45.390625 158.835938 Z M 45.390625 158.835938 "/><path style=" stroke:none;fill-rule:nonzero;fill:#ffffff;fill-opacity:1;" d="M 20.949219 184.660156 C 21.828125 184.660156 22.535156 183.949219 22.535156 183.070312 C 22.535156 182.191406 21.828125 181.484375 20.949219 181.484375 C 20.066406 181.484375 19.359375 182.191406 19.359375 183.070312 C 19.339844 183.949219 20.066406 184.660156 20.949219 184.660156 Z M 20.949219 184.660156 "/><path style=" stroke:none;fill-rule:nonzero;fill:#ffffff;fill-opacity:1;" d="M 61.402344 223.105469 C 60.3125 223.105469 59.433594 223.984375 59.433594 225.074219 C 59.433594 226.164062 60.3125 227.046875 61.402344 227.046875 C 62.492188 227.046875 63.371094 226.164062 63.371094 225.074219 C 63.371094 223.984375 62.492188 223.105469 61.402344 223.105469 Z M 61.402344 223.105469 "/><g clip-rule="nonzero" clip-path="url(#5454c9a669)"><path style=" stroke:none;fill-rule:nonzero;fill:#ffffff;fill-opacity:1;" d="M 81.886719 227.027344 C 81.179688 227.027344 80.605469 227.601562 80.605469 228.308594 C 80.605469 229.015625 81.179688 229.589844 81.886719 229.589844 C 82.597656 229.589844 83.167969 229.015625 83.167969 228.308594 C 83.152344 227.601562 82.578125 227.027344 81.886719 227.027344 Z M 81.886719 227.027344 "/></g><path style=" stroke:none;fill-rule:nonzero;fill:#ffffff;fill-opacity:1;" d="M 72.421875 176.242188 C 72.421875 176.910156 72.957031 177.449219 73.625 177.449219 C 74.292969 177.449219 74.832031 176.910156 74.832031 176.242188 C 74.832031 175.574219 74.292969 175.039062 73.625 175.039062 C 72.957031 175.039062 72.421875 175.574219 72.421875 176.242188 Z M 72.421875 176.242188 "/><g clip-rule="nonzero" clip-path="url(#a54a4bdce4)"><path style=" stroke:none;fill-rule:nonzero;fill:#ffffff;fill-opacity:1;" d="M 107.84375 148.296875 C 108.742188 148.296875 109.488281 147.570312 109.488281 146.652344 C 109.488281 145.753906 108.761719 145.007812 107.84375 145.007812 C 106.945312 145.007812 106.199219 145.734375 106.199219 146.652344 C 106.21875 147.570312 106.945312 148.296875 107.84375 148.296875 Z M 107.84375 148.296875 "/></g><path style=" stroke:none;fill-rule:nonzero;fill:#ffffff;fill-opacity:1;" d="M 97.878906 155.011719 C 97.878906 155.242188 97.796875 155.441406 97.632812 155.605469 C 97.46875 155.769531 97.269531 155.851562 97.039062 155.851562 C 96.804688 155.851562 96.605469 155.769531 96.441406 155.605469 C 96.277344 155.441406 96.195312 155.242188 96.195312 155.011719 C 96.195312 154.777344 96.277344 154.578125 96.441406 154.414062 C 96.605469 154.25 96.804688 154.167969 97.039062 154.167969 C 97.269531 154.167969 97.46875 154.25 97.632812 154.414062 C 97.796875 154.578125 97.878906 154.777344 97.878906 155.011719 Z M 97.878906 155.011719 "/><g transform="matrix(1,0,0,1,156,196)"><g clip-path="url(#d699373fd1)"><g style="fill:#ff00ff;fill-opacity:1;"><g transform="translate(1.97665, 13.429768)"><path style="stroke:none" d="M 3.28125 0 L 1.953125 0 L 0.609375 -8.90625 L 1.578125 -8.90625 L 2.703125 -1.390625 L 4.171875 -8.90625 L 5.1875 -8.90625 L 6.65625 -1.390625 L 7.78125 -8.90625 L 8.75 -8.90625 L 7.40625 0 L 6.078125 0 L 4.671875 -7.109375 Z M 3.28125 0 "/></g></g><g style="fill:#ff00ff;fill-opacity:1;"><g transform="translate(18.403535, 13.429768)"><path style="stroke:none" d="M 5.40625 0 L 1.375 0 L 1.375 -8.90625 L 5.28125 -8.90625 L 5.28125 -8.078125 L 2.328125 -8.078125 L 2.328125 -4.9375 L 4.734375 -4.9375 L 4.734375 -4.109375 L 2.328125 -4.109375 L 2.328125 -0.828125 L 5.40625 -0.828125 Z M 5.40625 0 "/></g></g><g style="fill:#ff00ff;fill-opacity:1;"><g transform="translate(31.570062, 13.429768)"><path style="stroke:none" d="M 1.375 -8.90625 L 3.4375 -8.90625 C 4.15625 -8.90625 4.695312 -8.734375 5.0625 -8.390625 C 5.4375 -8.054688 5.625 -7.585938 5.625 -6.984375 L 5.625 -6.171875 C 5.625 -5.390625 5.296875 -4.890625 4.640625 -4.671875 C 5.378906 -4.472656 5.75 -3.96875 5.75 -3.15625 L 5.75 -1.921875 C 5.75 -1.304688 5.566406 -0.832031 5.203125 -0.5 C 4.835938 -0.164062 4.296875 0 3.578125 0 L 1.375 0 Z M 4.796875 -1.921875 L 4.796875 -3.15625 C 4.796875 -3.445312 4.6875 -3.710938 4.46875 -3.953125 C 4.25 -4.191406 3.953125 -4.3125 3.578125 -4.3125 L 2.328125 -4.3125 L 2.328125 -0.828125 L 3.578125 -0.828125 C 3.960938 -0.828125 4.257812 -0.929688 4.46875 -1.140625 C 4.6875 -1.359375 4.796875 -1.617188 4.796875 -1.921875 Z M 4.65625 -6.171875 L 4.65625 -6.984375 C 4.65625 -7.273438 4.546875 -7.53125 4.328125 -7.75 C 4.117188 -7.96875 3.820312 -8.078125 3.4375 -8.078125 L 2.328125 -8.078125 L 2.328125 -5 L 3.4375 -5 C 3.820312 -5 4.117188 -5.117188 4.328125 -5.359375 C 4.546875 -5.597656 4.65625 -5.867188 4.65625 -6.171875 Z M 4.65625 -6.171875 "/></g></g><g style="fill:#ff00ff;fill-opacity:1;"><g transform="translate(45.558529, 13.429768)"><path style="stroke:none" d=""/></g></g><g style="fill:#ff00ff;fill-opacity:1;"><g transform="translate(55.779782, 13.429768)"><path style="stroke:none" d="M 3.578125 0 L 1.375 0 L 1.375 -8.90625 L 3.578125 -8.90625 C 4.285156 -8.90625 4.820312 -8.734375 5.1875 -8.390625 C 5.5625 -8.054688 5.75 -7.585938 5.75 -6.984375 L 5.75 -1.921875 C 5.75 -1.304688 5.566406 -0.832031 5.203125 -0.5 C 4.835938 -0.164062 4.296875 0 3.578125 0 Z M 4.796875 -1.921875 L 4.796875 -6.984375 C 4.796875 -7.273438 4.6875 -7.53125 4.46875 -7.75 C 4.257812 -7.96875 3.960938 -8.078125 3.578125 -8.078125 L 2.328125 -8.078125 L 2.328125 -0.828125 L 3.578125 -0.828125 C 3.960938 -0.828125 4.257812 -0.929688 4.46875 -1.140625 C 4.6875 -1.359375 4.796875 -1.617188 4.796875 -1.921875 Z M 4.796875 -1.921875 "/></g></g><g style="fill:#ff00ff;fill-opacity:1;"><g transform="translate(69.768249, 13.429768)"><path style="stroke:none" d="M 5.40625 0 L 1.375 0 L 1.375 -8.90625 L 5.28125 -8.90625 L 5.28125 -8.078125 L 2.328125 -8.078125 L 2.328125 -4.9375 L 4.734375 -4.9375 L 4.734375 -4.109375 L 2.328125 -4.109375 L 2.328125 -0.828125 L 5.40625 -0.828125 Z M 5.40625 0 "/></g></g><g style="fill:#ff00ff;fill-opacity:1;"><g transform="translate(82.934776, 13.429768)"><path style="stroke:none" d="M 4 0 L 2.5625 0 L 0.546875 -8.90625 L 1.5 -8.90625 L 3.28125 -1.0625 L 5.0625 -8.90625 L 6.015625 -8.90625 Z M 4 0 "/></g></g><g style="fill:#ff00ff;fill-opacity:1;"><g transform="translate(96.567061, 13.429768)"><path style="stroke:none" d="M 5.40625 0 L 1.375 0 L 1.375 -8.90625 L 5.28125 -8.90625 L 5.28125 -8.078125 L 2.328125 -8.078125 L 2.328125 -4.9375 L 4.734375 -4.9375 L 4.734375 -4.109375 L 2.328125 -4.109375 L 2.328125 -0.828125 L 5.40625 -0.828125 Z M 5.40625 0 "/></g></g><g style="fill:#ff00ff;fill-opacity:1;"><g transform="translate(109.733594, 13.429768)"><path style="stroke:none" d="M 1.375 0 L 1.375 -8.90625 L 2.328125 -8.90625 L 2.328125 -0.828125 L 4.84375 -0.828125 L 4.84375 0 Z M 1.375 0 "/></g></g><g style="fill:#ff00ff;fill-opacity:1;"><g transform="translate(121.913794, 13.429768)"><path style="stroke:none" d="M 5.828125 -7.1875 L 5.828125 -1.71875 C 5.828125 -1.101562 5.628906 -0.628906 5.234375 -0.296875 C 4.847656 0.0351562 4.269531 0.203125 3.5 0.203125 C 2.726562 0.203125 2.144531 0.0351562 1.75 -0.296875 C 1.363281 -0.628906 1.171875 -1.101562 1.171875 -1.71875 L 1.171875 -7.1875 C 1.171875 -7.800781 1.363281 -8.273438 1.75 -8.609375 C 2.132812 -8.941406 2.710938 -9.109375 3.484375 -9.109375 C 4.253906 -9.109375 4.835938 -8.941406 5.234375 -8.609375 C 5.628906 -8.273438 5.828125 -7.800781 5.828125 -7.1875 Z M 4.859375 -1.71875 L 4.859375 -7.1875 C 4.859375 -7.925781 4.398438 -8.296875 3.484375 -8.296875 C 2.578125 -8.296875 2.125 -7.925781 2.125 -7.1875 L 2.125 -1.71875 C 2.125 -0.976562 2.578125 -0.609375 3.484375 -0.609375 C 4.398438 -0.609375 4.859375 -0.976562 4.859375 -1.71875 Z M 4.859375 -1.71875 "/></g></g><g style="fill:#ff00ff;fill-opacity:1;"><g transform="translate(135.970761, 13.429768)"><path style="stroke:none" d="M 2.1875 0 L 1.234375 0 L 1.234375 -8.90625 L 3.296875 -8.90625 C 4.015625 -8.90625 4.554688 -8.734375 4.921875 -8.390625 C 5.296875 -8.054688 5.484375 -7.585938 5.484375 -6.984375 L 5.484375 -4.65625 C 5.484375 -4.039062 5.300781 -3.566406 4.9375 -3.234375 C 4.570312 -2.898438 4.023438 -2.734375 3.296875 -2.734375 L 2.1875 -2.734375 Z M 4.515625 -4.65625 L 4.515625 -6.984375 C 4.515625 -7.335938 4.410156 -7.609375 4.203125 -7.796875 C 3.992188 -7.984375 3.691406 -8.078125 3.296875 -8.078125 L 2.1875 -8.078125 L 2.1875 -3.5625 L 3.296875 -3.5625 C 4.109375 -3.5625 4.515625 -3.925781 4.515625 -4.65625 Z M 4.515625 -4.65625 "/></g></g><g style="fill:#ff00ff;fill-opacity:1;"><g transform="translate(149.342768, 13.429768)"><path style="stroke:none" d="M 5.40625 0 L 1.375 0 L 1.375 -8.90625 L 5.28125 -8.90625 L 5.28125 -8.078125 L 2.328125 -8.078125 L 2.328125 -4.9375 L 4.734375 -4.9375 L 4.734375 -4.109375 L 2.328125 -4.109375 L 2.328125 -0.828125 L 5.40625 -0.828125 Z M 5.40625 0 "/></g></g><g style="fill:#ff00ff;fill-opacity:1;"><g transform="translate(162.509289, 13.429768)"><path style="stroke:none" d="M 2.328125 0 L 1.375 0 L 1.375 -8.90625 L 3.4375 -8.90625 C 4.15625 -8.90625 4.695312 -8.734375 5.0625 -8.390625 C 5.4375 -8.054688 5.625 -7.585938 5.625 -6.984375 L 5.625 -5.0625 C 5.625 -4.132812 5.21875 -3.539062 4.40625 -3.28125 L 6.09375 0 L 5.046875 0 L 3.4375 -3.15625 L 2.328125 -3.15625 Z M 4.65625 -5.0625 L 4.65625 -6.984375 C 4.65625 -7.335938 4.550781 -7.609375 4.34375 -7.796875 C 4.132812 -7.984375 3.832031 -8.078125 3.4375 -8.078125 L 2.328125 -8.078125 L 2.328125 -3.96875 L 3.4375 -3.96875 C 4.25 -3.96875 4.65625 -4.332031 4.65625 -5.0625 Z M 4.65625 -5.0625 "/></g></g><g style="fill:#00ffff;fill-opacity:1;"><g transform="translate(0.922138, 12.080061)"><path style="stroke:none" d="M 3.28125 0 L 1.953125 0 L 0.609375 -8.90625 L 1.578125 -8.90625 L 2.703125 -1.390625 L 4.171875 -8.90625 L 5.1875 -8.90625 L 6.65625 -1.390625 L 7.78125 -8.90625 L 8.75 -8.90625 L 7.40625 0 L 6.078125 0 L 4.671875 -7.109375 Z M 3.28125 0 "/></g></g><g style="fill:#00ffff;fill-opacity:1;"><g transform="translate(17.349023, 12.080061)"><path style="stroke:none" d="M 5.40625 0 L 1.375 0 L 1.375 -8.90625 L 5.28125 -8.90625 L 5.28125 -8.078125 L 2.328125 -8.078125 L 2.328125 -4.9375 L 4.734375 -4.9375 L 4.734375 -4.109375 L 2.328125 -4.109375 L 2.328125 -0.828125 L 5.40625 -0.828125 Z M 5.40625 0 "/></g></g><g style="fill:#00ffff;fill-opacity:1;"><g transform="translate(30.51555, 12.080061)"><path style="stroke:none" d="M 1.375 -8.90625 L 3.4375 -8.90625 C 4.15625 -8.90625 4.695312 -8.734375 5.0625 -8.390625 C 5.4375 -8.054688 5.625 -7.585938 5.625 -6.984375 L 5.625 -6.171875 C 5.625 -5.390625 5.296875 -4.890625 4.640625 -4.671875 C 5.378906 -4.472656 5.75 -3.96875 5.75 -3.15625 L 5.75 -1.921875 C 5.75 -1.304688 5.566406 -0.832031 5.203125 -0.5 C 4.835938 -0.164062 4.296875 0 3.578125 0 L 1.375 0 Z M 4.796875 -1.921875 L 4.796875 -3.15625 C 4.796875 -3.445312 4.6875 -3.710938 4.46875 -3.953125 C 4.25 -4.191406 3.953125 -4.3125 3.578125 -4.3125 L 2.328125 -4.3125 L 2.328125 -0.828125 L 3.578125 -0.828125 C 3.960938 -0.828125 4.257812 -0.929688 4.46875 -1.140625 C 4.6875 -1.359375 4.796875 -1.617188 4.796875 -1.921875 Z M 4.65625 -6.171875 L 4.65625 -6.984375 C 4.65625 -7.273438 4.546875 -7.53125 4.328125 -7.75 C 4.117188 -7.96875 3.820312 -8.078125 3.4375 -8.078125 L 2.328125 -8.078125 L 2.328125 -5 L 3.4375 -5 C 3.820312 -5 4.117188 -5.117188 4.328125 -5.359375 C 4.546875 -5.597656 4.65625 -5.867188 4.65625 -6.171875 Z M 4.65625 -6.171875 "/></g></g><g style="fill:#00ffff;fill-opacity:1;"><g transform="translate(44.504017, 12.080061)"><path style="stroke:none" d=""/></g></g><g style="fill:#00ffff;fill-opacity:1;"><g transform="translate(54.72527, 12.080061)"><path style="stroke:none" d="M 3.578125 0 L 1.375 0 L 1.375 -8.90625 L 3.578125 -8.90625 C 4.285156 -8.90625 4.820312 -8.734375 5.1875 -8.390625 C 5.5625 -8.054688 5.75 -7.585938 5.75 -6.984375 L 5.75 -1.921875 C 5.75 -1.304688 5.566406 -0.832031 5.203125 -0.5 C 4.835938 -0.164062 4.296875 0 3.578125 0 Z M 4.796875 -1.921875 L 4.796875 -6.984375 C 4.796875 -7.273438 4.6875 -7.53125 4.46875 -7.75 C 4.257812 -7.96875 3.960938 -8.078125 3.578125 -8.078125 L 2.328125 -8.078125 L 2.328125 -0.828125 L 3.578125 -0.828125 C 3.960938 -0.828125 4.257812 -0.929688 4.46875 -1.140625 C 4.6875 -1.359375 4.796875 -1.617188 4.796875 -1.921875 Z M 4.796875 -1.921875 "/></g></g><g style="fill:#00ffff;fill-opacity:1;"><g transform="translate(68.713737, 12.080061)"><path style="stroke:none" d="M 5.40625 0 L 1.375 0 L 1.375 -8.90625 L 5.28125 -8.90625 L 5.28125 -8.078125 L 2.328125 -8.078125 L 2.328125 -4.9375 L 4.734375 -4.9375 L 4.734375 -4.109375 L 2.328125 -4.109375 L 2.328125 -0.828125 L 5.40625 -0.828125 Z M 5.40625 0 "/></g></g><g style="fill:#00ffff;fill-opacity:1;"><g transform="translate(81.880264, 12.080061)"><path style="stroke:none" d="M 4 0 L 2.5625 0 L 0.546875 -8.90625 L 1.5 -8.90625 L 3.28125 -1.0625 L 5.0625 -8.90625 L 6.015625 -8.90625 Z M 4 0 "/></g></g><g style="fill:#00ffff;fill-opacity:1;"><g transform="translate(95.512549, 12.080061)"><path style="stroke:none" d="M 5.40625 0 L 1.375 0 L 1.375 -8.90625 L 5.28125 -8.90625 L 5.28125 -8.078125 L 2.328125 -8.078125 L 2.328125 -4.9375 L 4.734375 -4.9375 L 4.734375 -4.109375 L 2.328125 -4.109375 L 2.328125 -0.828125 L 5.40625 -0.828125 Z M 5.40625 0 "/></g></g><g style="fill:#00ffff;fill-opacity:1;"><g transform="translate(108.679082, 12.080061)"><path style="stroke:none" d="M 1.375 0 L 1.375 -8.90625 L 2.328125 -8.90625 L 2.328125 -0.828125 L 4.84375 -0.828125 L 4.84375 0 Z M 1.375 0 "/></g></g><g style="fill:#00ffff;fill-opacity:1;"><g transform="translate(120.859282, 12.080061)"><path style="stroke:none" d="M 5.828125 -7.1875 L 5.828125 -1.71875 C 5.828125 -1.101562 5.628906 -0.628906 5.234375 -0.296875 C 4.847656 0.0351562 4.269531 0.203125 3.5 0.203125 C 2.726562 0.203125 2.144531 0.0351562 1.75 -0.296875 C 1.363281 -0.628906 1.171875 -1.101562 1.171875 -1.71875 L 1.171875 -7.1875 C 1.171875 -7.800781 1.363281 -8.273438 1.75 -8.609375 C 2.132812 -8.941406 2.710938 -9.109375 3.484375 -9.109375 C 4.253906 -9.109375 4.835938 -8.941406 5.234375 -8.609375 C 5.628906 -8.273438 5.828125 -7.800781 5.828125 -7.1875 Z M 4.859375 -1.71875 L 4.859375 -7.1875 C 4.859375 -7.925781 4.398438 -8.296875 3.484375 -8.296875 C 2.578125 -8.296875 2.125 -7.925781 2.125 -7.1875 L 2.125 -1.71875 C 2.125 -0.976562 2.578125 -0.609375 3.484375 -0.609375 C 4.398438 -0.609375 4.859375 -0.976562 4.859375 -1.71875 Z M 4.859375 -1.71875 "/></g></g><g style="fill:#00ffff;fill-opacity:1;"><g transform="translate(134.916249, 12.080061)"><path style="stroke:none" d="M 2.1875 0 L 1.234375 0 L 1.234375 -8.90625 L 3.296875 -8.90625 C 4.015625 -8.90625 4.554688 -8.734375 4.921875 -8.390625 C 5.296875 -8.054688 5.484375 -7.585938 5.484375 -6.984375 L 5.484375 -4.65625 C 5.484375 -4.039062 5.300781 -3.566406 4.9375 -3.234375 C 4.570312 -2.898438 4.023438 -2.734375 3.296875 -2.734375 L 2.1875 -2.734375 Z M 4.515625 -4.65625 L 4.515625 -6.984375 C 4.515625 -7.335938 4.410156 -7.609375 4.203125 -7.796875 C 3.992188 -7.984375 3.691406 -8.078125 3.296875 -8.078125 L 2.1875 -8.078125 L 2.1875 -3.5625 L 3.296875 -3.5625 C 4.109375 -3.5625 4.515625 -3.925781 4.515625 -4.65625 Z M 4.515625 -4.65625 "/></g></g><g style="fill:#00ffff;fill-opacity:1;"><g transform="translate(148.288256, 12.080061)"><path style="stroke:none" d="M 5.40625 0 L 1.375 0 L 1.375 -8.90625 L 5.28125 -8.90625 L 5.28125 -8.078125 L 2.328125 -8.078125 L 2.328125 -4.9375 L 4.734375 -4.9375 L 4.734375 -4.109375 L 2.328125 -4.109375 L 2.328125 -0.828125 L 5.40625 -0.828125 Z M 5.40625 0 "/></g></g><g style="fill:#00ffff;fill-opacity:1;"><g transform="translate(161.454778, 12.080061)"><path style="stroke:none" d="M 2.328125 0 L 1.375 0 L 1.375 -8.90625 L 3.4375 -8.90625 C 4.15625 -8.90625 4.695312 -8.734375 5.0625 -8.390625 C 5.4375 -8.054688 5.625 -7.585938 5.625 -6.984375 L 5.625 -5.0625 C 5.625 -4.132812 5.21875 -3.539062 4.40625 -3.28125 L 6.09375 0 L 5.046875 0 L 3.4375 -3.15625 L 2.328125 -3.15625 Z M 4.65625 -5.0625 L 4.65625 -6.984375 C 4.65625 -7.335938 4.550781 -7.609375 4.34375 -7.796875 C 4.132812 -7.984375 3.832031 -8.078125 3.4375 -8.078125 L 2.328125 -8.078125 L 2.328125 -3.96875 L 3.4375 -3.96875 C 4.25 -3.96875 4.65625 -4.332031 4.65625 -5.0625 Z M 4.65625 -5.0625 "/></g></g><g style="fill:#ffffff;fill-opacity:1;"><g transform="translate(1.449394, 12.754915)"><path style="stroke:none" d="M 3.28125 0 L 1.953125 0 L 0.609375 -8.90625 L 1.578125 -8.90625 L 2.703125 -1.390625 L 4.171875 -8.90625 L 5.1875 -8.90625 L 6.65625 -1.390625 L 7.78125 -8.90625 L 8.75 -8.90625 L 7.40625 0 L 6.078125 0 L 4.671875 -7.109375 Z M 3.28125 0 "/></g></g><g style="fill:#ffffff;fill-opacity:1;"><g transform="translate(17.876279, 12.754915)"><path style="stroke:none" d="M 5.40625 0 L 1.375 0 L 1.375 -8.90625 L 5.28125 -8.90625 L 5.28125 -8.078125 L 2.328125 -8.078125 L 2.328125 -4.9375 L 4.734375 -4.9375 L 4.734375 -4.109375 L 2.328125 -4.109375 L 2.328125 -0.828125 L 5.40625 -0.828125 Z M 5.40625 0 "/></g></g><g style="fill:#ffffff;fill-opacity:1;"><g transform="translate(31.042806, 12.754915)"><path style="stroke:none" d="M 1.375 -8.90625 L 3.4375 -8.90625 C 4.15625 -8.90625 4.695312 -8.734375 5.0625 -8.390625 C 5.4375 -8.054688 5.625 -7.585938 5.625 -6.984375 L 5.625 -6.171875 C 5.625 -5.390625 5.296875 -4.890625 4.640625 -4.671875 C 5.378906 -4.472656 5.75 -3.96875 5.75 -3.15625 L 5.75 -1.921875 C 5.75 -1.304688 5.566406 -0.832031 5.203125 -0.5 C 4.835938 -0.164062 4.296875 0 3.578125 0 L 1.375 0 Z M 4.796875 -1.921875 L 4.796875 -3.15625 C 4.796875 -3.445312 4.6875 -3.710938 4.46875 -3.953125 C 4.25 -4.191406 3.953125 -4.3125 3.578125 -4.3125 L 2.328125 -4.3125 L 2.328125 -0.828125 L 3.578125 -0.828125 C 3.960938 -0.828125 4.257812 -0.929688 4.46875 -1.140625 C 4.6875 -1.359375 4.796875 -1.617188 4.796875 -1.921875 Z M 4.65625 -6.171875 L 4.65625 -6.984375 C 4.65625 -7.273438 4.546875 -7.53125 4.328125 -7.75 C 4.117188 -7.96875 3.820312 -8.078125 3.4375 -8.078125 L 2.328125 -8.078125 L 2.328125 -5 L 3.4375 -5 C 3.820312 -5 4.117188 -5.117188 4.328125 -5.359375 C 4.546875 -5.597656 4.65625 -5.867188 4.65625 -6.171875 Z M 4.65625 -6.171875 "/></g></g><g style="fill:#ffffff;fill-opacity:1;"><g transform="translate(45.031273, 12.754915)"><path style="stroke:none" d=""/></g></g><g style="fill:#ffffff;fill-opacity:1;"><g transform="translate(55.252526, 12.754915)"><path style="stroke:none" d="M 3.578125 0 L 1.375 0 L 1.375 -8.90625 L 3.578125 -8.90625 C 4.285156 -8.90625 4.820312 -8.734375 5.1875 -8.390625 C 5.5625 -8.054688 5.75 -7.585938 5.75 -6.984375 L 5.75 -1.921875 C 5.75 -1.304688 5.566406 -0.832031 5.203125 -0.5 C 4.835938 -0.164062 4.296875 0 3.578125 0 Z M 4.796875 -1.921875 L 4.796875 -6.984375 C 4.796875 -7.273438 4.6875 -7.53125 4.46875 -7.75 C 4.257812 -7.96875 3.960938 -8.078125 3.578125 -8.078125 L 2.328125 -8.078125 L 2.328125 -0.828125 L 3.578125 -0.828125 C 3.960938 -0.828125 4.257812 -0.929688 4.46875 -1.140625 C 4.6875 -1.359375 4.796875 -1.617188 4.796875 -1.921875 Z M 4.796875 -1.921875 "/></g></g><g style="fill:#ffffff;fill-opacity:1;"><g transform="translate(69.240993, 12.754915)"><path style="stroke:none" d="M 5.40625 0 L 1.375 0 L 1.375 -8.90625 L 5.28125 -8.90625 L 5.28125 -8.078125 L 2.328125 -8.078125 L 2.328125 -4.9375 L 4.734375 -4.9375 L 4.734375 -4.109375 L 2.328125 -4.109375 L 2.328125 -0.828125 L 5.40625 -0.828125 Z M 5.40625 0 "/></g></g><g style="fill:#ffffff;fill-opacity:1;"><g transform="translate(82.40752, 12.754915)"><path style="stroke:none" d="M 4 0 L 2.5625 0 L 0.546875 -8.90625 L 1.5 -8.90625 L 3.28125 -1.0625 L 5.0625 -8.90625 L 6.015625 -8.90625 Z M 4 0 "/></g></g><g style="fill:#ffffff;fill-opacity:1;"><g transform="translate(96.039805, 12.754915)"><path style="stroke:none" d="M 5.40625 0 L 1.375 0 L 1.375 -8.90625 L 5.28125 -8.90625 L 5.28125 -8.078125 L 2.328125 -8.078125 L 2.328125 -4.9375 L 4.734375 -4.9375 L 4.734375 -4.109375 L 2.328125 -4.109375 L 2.328125 -0.828125 L 5.40625 -0.828125 Z M 5.40625 0 "/></g></g><g style="fill:#ffffff;fill-opacity:1;"><g transform="translate(109.206338, 12.754915)"><path style="stroke:none" d="M 1.375 0 L 1.375 -8.90625 L 2.328125 -8.90625 L 2.328125 -0.828125 L 4.84375 -0.828125 L 4.84375 0 Z M 1.375 0 "/></g></g><g style="fill:#ffffff;fill-opacity:1;"><g transform="translate(121.386538, 12.754915)"><path style="stroke:none" d="M 5.828125 -7.1875 L 5.828125 -1.71875 C 5.828125 -1.101562 5.628906 -0.628906 5.234375 -0.296875 C 4.847656 0.0351562 4.269531 0.203125 3.5 0.203125 C 2.726562 0.203125 2.144531 0.0351562 1.75 -0.296875 C 1.363281 -0.628906 1.171875 -1.101562 1.171875 -1.71875 L 1.171875 -7.1875 C 1.171875 -7.800781 1.363281 -8.273438 1.75 -8.609375 C 2.132812 -8.941406 2.710938 -9.109375 3.484375 -9.109375 C 4.253906 -9.109375 4.835938 -8.941406 5.234375 -8.609375 C 5.628906 -8.273438 5.828125 -7.800781 5.828125 -7.1875 Z M 4.859375 -1.71875 L 4.859375 -7.1875 C 4.859375 -7.925781 4.398438 -8.296875 3.484375 -8.296875 C 2.578125 -8.296875 2.125 -7.925781 2.125 -7.1875 L 2.125 -1.71875 C 2.125 -0.976562 2.578125 -0.609375 3.484375 -0.609375 C 4.398438 -0.609375 4.859375 -0.976562 4.859375 -1.71875 Z M 4.859375 -1.71875 "/></g></g><g style="fill:#ffffff;fill-opacity:1;"><g transform="translate(135.443505, 12.754915)"><path style="stroke:none" d="M 2.1875 0 L 1.234375 0 L 1.234375 -8.90625 L 3.296875 -8.90625 C 4.015625 -8.90625 4.554688 -8.734375 4.921875 -8.390625 C 5.296875 -8.054688 5.484375 -7.585938 5.484375 -6.984375 L 5.484375 -4.65625 C 5.484375 -4.039062 5.300781 -3.566406 4.9375 -3.234375 C 4.570312 -2.898438 4.023438 -2.734375 3.296875 -2.734375 L 2.1875 -2.734375 Z M 4.515625 -4.65625 L 4.515625 -6.984375 C 4.515625 -7.335938 4.410156 -7.609375 4.203125 -7.796875 C 3.992188 -7.984375 3.691406 -8.078125 3.296875 -8.078125 L 2.1875 -8.078125 L 2.1875 -3.5625 L 3.296875 -3.5625 C 4.109375 -3.5625 4.515625 -3.925781 4.515625 -4.65625 Z M 4.515625 -4.65625 "/></g></g><g style="fill:#ffffff;fill-opacity:1;"><g transform="translate(148.815512, 12.754915)"><path style="stroke:none" d="M 5.40625 0 L 1.375 0 L 1.375 -8.90625 L 5.28125 -8.90625 L 5.28125 -8.078125 L 2.328125 -8.078125 L 2.328125 -4.9375 L 4.734375 -4.9375 L 4.734375 -4.109375 L 2.328125 -4.109375 L 2.328125 -0.828125 L 5.40625 -0.828125 Z M 5.40625 0 "/></g></g><g style="fill:#ffffff;fill-opacity:1;"><g transform="translate(161.982034, 12.754915)"><path style="stroke:none" d="M 2.328125 0 L 1.375 0 L 1.375 -8.90625 L 3.4375 -8.90625 C 4.15625 -8.90625 4.695312 -8.734375 5.0625 -8.390625 C 5.4375 -8.054688 5.625 -7.585938 5.625 -6.984375 L 5.625 -5.0625 C 5.625 -4.132812 5.21875 -3.539062 4.40625 -3.28125 L 6.09375 0 L 5.046875 0 L 3.4375 -3.15625 L 2.328125 -3.15625 Z M 4.65625 -5.0625 L 4.65625 -6.984375 C 4.65625 -7.335938 4.550781 -7.609375 4.34375 -7.796875 C 4.132812 -7.984375 3.832031 -8.078125 3.4375 -8.078125 L 2.328125 -8.078125 L 2.328125 -3.96875 L 3.4375 -3.96875 C 4.25 -3.96875 4.65625 -4.332031 4.65625 -5.0625 Z M 4.65625 -5.0625 "/></g></g></g></g><g transform="matrix(1,0,0,1,152,148)"><g clip-path="url(#c56e6ed59d)"><g style="fill:#ff00ff;fill-opacity:1;"><g transform="translate(3.899559, 33.548565)"><path style="stroke:none" d="M 13.3125 -7.875 L 13.3125 0 L 8.171875 0 L 8.171875 -7.9375 L -0.4375 -22.25 L 5.015625 -22.25 L 10.96875 -12.359375 L 16.90625 -22.25 L 21.953125 -22.25 Z M 13.3125 -7.875 "/></g></g><g style="fill:#ff00ff;fill-opacity:1;"><g transform="translate(27.06482, 33.548565)"><path style="stroke:none" d="M 17.28125 -4.765625 L 6.953125 -4.765625 L 4.984375 0 L -0.28125 0 L 9.625 -22.25 L 14.71875 -22.25 L 24.65625 0 L 19.265625 0 Z M 15.671875 -8.671875 L 12.140625 -17.1875 L 8.609375 -8.671875 Z M 15.671875 -8.671875 "/></g></g><g style="fill:#ff00ff;fill-opacity:1;"><g transform="translate(53.089943, 33.548565)"><path style="stroke:none" d="M 13.28125 0.375 C 11.019531 0.375 8.972656 -0.113281 7.140625 -1.09375 C 5.304688 -2.082031 3.863281 -3.445312 2.8125 -5.1875 C 1.757812 -6.9375 1.234375 -8.914062 1.234375 -11.125 C 1.234375 -13.320312 1.757812 -15.296875 2.8125 -17.046875 C 3.863281 -18.796875 5.304688 -20.160156 7.140625 -21.140625 C 8.972656 -22.128906 11.03125 -22.625 13.3125 -22.625 C 15.238281 -22.625 16.976562 -22.285156 18.53125 -21.609375 C 20.09375 -20.929688 21.40625 -19.957031 22.46875 -18.6875 L 19.15625 -15.640625 C 17.65625 -17.378906 15.796875 -18.25 13.578125 -18.25 C 12.191406 -18.25 10.957031 -17.945312 9.875 -17.34375 C 8.800781 -16.738281 7.960938 -15.894531 7.359375 -14.8125 C 6.753906 -13.726562 6.453125 -12.5 6.453125 -11.125 C 6.453125 -9.75 6.753906 -8.519531 7.359375 -7.4375 C 7.960938 -6.351562 8.800781 -5.507812 9.875 -4.90625 C 10.957031 -4.300781 12.191406 -4 13.578125 -4 C 15.796875 -4 17.65625 -4.878906 19.15625 -6.640625 L 22.46875 -3.59375 C 21.40625 -2.300781 20.085938 -1.316406 18.515625 -0.640625 C 16.953125 0.0351562 15.207031 0.375 13.28125 0.375 Z M 13.28125 0.375 "/></g></g><g style="fill:#ff00ff;fill-opacity:1;"><g transform="translate(78.066449, 33.548565)"><path style="stroke:none" d="M 2.640625 -22.25 L 7.78125 -22.25 L 7.78125 0 L 2.640625 0 Z M 2.640625 -22.25 "/></g></g><g style="fill:#ff00ff;fill-opacity:1;"><g transform="translate(90.173587, 33.548565)"><path style="stroke:none" d="M 23.046875 -22.25 L 23.046875 0 L 18.8125 0 L 7.71875 -13.5 L 7.71875 0 L 2.640625 0 L 2.640625 -22.25 L 6.890625 -22.25 L 17.953125 -8.734375 L 17.953125 -22.25 Z M 23.046875 -22.25 "/></g></g><g style="fill:#ff00ff;fill-opacity:1;"><g transform="translate(117.533319, 33.548565)"><path style="stroke:none" d="M 19.859375 -4.125 L 19.859375 0 L 2.640625 0 L 2.640625 -22.25 L 19.453125 -22.25 L 19.453125 -18.109375 L 7.75 -18.109375 L 7.75 -13.28125 L 18.078125 -13.28125 L 18.078125 -9.28125 L 7.75 -9.28125 L 7.75 -4.125 Z M 19.859375 -4.125 "/></g></g><g style="fill:#ff00ff;fill-opacity:1;"><g transform="translate(140.539692, 33.548565)"><path style="stroke:none" d="M 4.15625 0.25 C 3.289062 0.25 2.5625 -0.046875 1.96875 -0.640625 C 1.375 -1.234375 1.078125 -1.972656 1.078125 -2.859375 C 1.078125 -3.773438 1.375 -4.507812 1.96875 -5.0625 C 2.5625 -5.625 3.289062 -5.90625 4.15625 -5.90625 C 5.03125 -5.90625 5.765625 -5.625 6.359375 -5.0625 C 6.953125 -4.507812 7.25 -3.773438 7.25 -2.859375 C 7.25 -1.972656 6.953125 -1.234375 6.359375 -0.640625 C 5.765625 -0.046875 5.03125 0.25 4.15625 0.25 Z M 4.15625 0.25 "/></g></g><g style="fill:#ff00ff;fill-opacity:1;"><g transform="translate(150.549595, 33.548565)"><path style="stroke:none" d="M 23.046875 -22.25 L 23.046875 0 L 18.8125 0 L 7.71875 -13.5 L 7.71875 0 L 2.640625 0 L 2.640625 -22.25 L 6.890625 -22.25 L 17.953125 -8.734375 L 17.953125 -22.25 Z M 23.046875 -22.25 "/></g></g><g style="fill:#00ffff;fill-opacity:1;"><g transform="translate(1.857361, 30.280382)"><path style="stroke:none" d="M 13.3125 -7.875 L 13.3125 0 L 8.171875 0 L 8.171875 -7.9375 L -0.4375 -22.25 L 5.015625 -22.25 L 10.96875 -12.359375 L 16.90625 -22.25 L 21.953125 -22.25 Z M 13.3125 -7.875 "/></g></g><g style="fill:#00ffff;fill-opacity:1;"><g transform="translate(25.022622, 30.280382)"><path style="stroke:none" d="M 17.28125 -4.765625 L 6.953125 -4.765625 L 4.984375 0 L -0.28125 0 L 9.625 -22.25 L 14.71875 -22.25 L 24.65625 0 L 19.265625 0 Z M 15.671875 -8.671875 L 12.140625 -17.1875 L 8.609375 -8.671875 Z M 15.671875 -8.671875 "/></g></g><g style="fill:#00ffff;fill-opacity:1;"><g transform="translate(51.047746, 30.280382)"><path style="stroke:none" d="M 13.28125 0.375 C 11.019531 0.375 8.972656 -0.113281 7.140625 -1.09375 C 5.304688 -2.082031 3.863281 -3.445312 2.8125 -5.1875 C 1.757812 -6.9375 1.234375 -8.914062 1.234375 -11.125 C 1.234375 -13.320312 1.757812 -15.296875 2.8125 -17.046875 C 3.863281 -18.796875 5.304688 -20.160156 7.140625 -21.140625 C 8.972656 -22.128906 11.03125 -22.625 13.3125 -22.625 C 15.238281 -22.625 16.976562 -22.285156 18.53125 -21.609375 C 20.09375 -20.929688 21.40625 -19.957031 22.46875 -18.6875 L 19.15625 -15.640625 C 17.65625 -17.378906 15.796875 -18.25 13.578125 -18.25 C 12.191406 -18.25 10.957031 -17.945312 9.875 -17.34375 C 8.800781 -16.738281 7.960938 -15.894531 7.359375 -14.8125 C 6.753906 -13.726562 6.453125 -12.5 6.453125 -11.125 C 6.453125 -9.75 6.753906 -8.519531 7.359375 -7.4375 C 7.960938 -6.351562 8.800781 -5.507812 9.875 -4.90625 C 10.957031 -4.300781 12.191406 -4 13.578125 -4 C 15.796875 -4 17.65625 -4.878906 19.15625 -6.640625 L 22.46875 -3.59375 C 21.40625 -2.300781 20.085938 -1.316406 18.515625 -0.640625 C 16.953125 0.0351562 15.207031 0.375 13.28125 0.375 Z M 13.28125 0.375 "/></g></g><g style="fill:#00ffff;fill-opacity:1;"><g transform="translate(76.024251, 30.280382)"><path style="stroke:none" d="M 2.640625 -22.25 L 7.78125 -22.25 L 7.78125 0 L 2.640625 0 Z M 2.640625 -22.25 "/></g></g><g style="fill:#00ffff;fill-opacity:1;"><g transform="translate(88.13139, 30.280382)"><path style="stroke:none" d="M 23.046875 -22.25 L 23.046875 0 L 18.8125 0 L 7.71875 -13.5 L 7.71875 0 L 2.640625 0 L 2.640625 -22.25 L 6.890625 -22.25 L 17.953125 -8.734375 L 17.953125 -22.25 Z M 23.046875 -22.25 "/></g></g><g style="fill:#00ffff;fill-opacity:1;"><g transform="translate(115.491122, 30.280382)"><path style="stroke:none" d="M 19.859375 -4.125 L 19.859375 0 L 2.640625 0 L 2.640625 -22.25 L 19.453125 -22.25 L 19.453125 -18.109375 L 7.75 -18.109375 L 7.75 -13.28125 L 18.078125 -13.28125 L 18.078125 -9.28125 L 7.75 -9.28125 L 7.75 -4.125 Z M 19.859375 -4.125 "/></g></g><g style="fill:#00ffff;fill-opacity:1;"><g transform="translate(138.497495, 30.280382)"><path style="stroke:none" d="M 4.15625 0.25 C 3.289062 0.25 2.5625 -0.046875 1.96875 -0.640625 C 1.375 -1.234375 1.078125 -1.972656 1.078125 -2.859375 C 1.078125 -3.773438 1.375 -4.507812 1.96875 -5.0625 C 2.5625 -5.625 3.289062 -5.90625 4.15625 -5.90625 C 5.03125 -5.90625 5.765625 -5.625 6.359375 -5.0625 C 6.953125 -4.507812 7.25 -3.773438 7.25 -2.859375 C 7.25 -1.972656 6.953125 -1.234375 6.359375 -0.640625 C 5.765625 -0.046875 5.03125 0.25 4.15625 0.25 Z M 4.15625 0.25 "/></g></g><g style="fill:#00ffff;fill-opacity:1;"><g transform="translate(148.507398, 30.280382)"><path style="stroke:none" d="M 23.046875 -22.25 L 23.046875 0 L 18.8125 0 L 7.71875 -13.5 L 7.71875 0 L 2.640625 0 L 2.640625 -22.25 L 6.890625 -22.25 L 17.953125 -8.734375 L 17.953125 -22.25 Z M 23.046875 -22.25 "/></g></g><g style="fill:#ffffff;fill-opacity:1;"><g transform="translate(2.87846, 31.914473)"><path style="stroke:none" d="M 13.3125 -7.875 L 13.3125 0 L 8.171875 0 L 8.171875 -7.9375 L -0.4375 -22.25 L 5.015625 -22.25 L 10.96875 -12.359375 L 16.90625 -22.25 L 21.953125 -22.25 Z M 13.3125 -7.875 "/></g></g><g style="fill:#ffffff;fill-opacity:1;"><g transform="translate(26.043721, 31.914473)"><path style="stroke:none" d="M 17.28125 -4.765625 L 6.953125 -4.765625 L 4.984375 0 L -0.28125 0 L 9.625 -22.25 L 14.71875 -22.25 L 24.65625 0 L 19.265625 0 Z M 15.671875 -8.671875 L 12.140625 -17.1875 L 8.609375 -8.671875 Z M 15.671875 -8.671875 "/></g></g><g style="fill:#ffffff;fill-opacity:1;"><g transform="translate(52.068844, 31.914473)"><path style="stroke:none" d="M 13.28125 0.375 C 11.019531 0.375 8.972656 -0.113281 7.140625 -1.09375 C 5.304688 -2.082031 3.863281 -3.445312 2.8125 -5.1875 C 1.757812 -6.9375 1.234375 -8.914062 1.234375 -11.125 C 1.234375 -13.320312 1.757812 -15.296875 2.8125 -17.046875 C 3.863281 -18.796875 5.304688 -20.160156 7.140625 -21.140625 C 8.972656 -22.128906 11.03125 -22.625 13.3125 -22.625 C 15.238281 -22.625 16.976562 -22.285156 18.53125 -21.609375 C 20.09375 -20.929688 21.40625 -19.957031 22.46875 -18.6875 L 19.15625 -15.640625 C 17.65625 -17.378906 15.796875 -18.25 13.578125 -18.25 C 12.191406 -18.25 10.957031 -17.945312 9.875 -17.34375 C 8.800781 -16.738281 7.960938 -15.894531 7.359375 -14.8125 C 6.753906 -13.726562 6.453125 -12.5 6.453125 -11.125 C 6.453125 -9.75 6.753906 -8.519531 7.359375 -7.4375 C 7.960938 -6.351562 8.800781 -5.507812 9.875 -4.90625 C 10.957031 -4.300781 12.191406 -4 13.578125 -4 C 15.796875 -4 17.65625 -4.878906 19.15625 -6.640625 L 22.46875 -3.59375 C 21.40625 -2.300781 20.085938 -1.316406 18.515625 -0.640625 C 16.953125 0.0351562 15.207031 0.375 13.28125 0.375 Z M 13.28125 0.375 "/></g></g><g style="fill:#ffffff;fill-opacity:1;"><g transform="translate(77.04535, 31.914473)"><path style="stroke:none" d="M 2.640625 -22.25 L 7.78125 -22.25 L 7.78125 0 L 2.640625 0 Z M 2.640625 -22.25 "/></g></g><g style="fill:#ffffff;fill-opacity:1;"><g transform="translate(89.152488, 31.914473)"><path style="stroke:none" d="M 23.046875 -22.25 L 23.046875 0 L 18.8125 0 L 7.71875 -13.5 L 7.71875 0 L 2.640625 0 L 2.640625 -22.25 L 6.890625 -22.25 L 17.953125 -8.734375 L 17.953125 -22.25 Z M 23.046875 -22.25 "/></g></g><g style="fill:#ffffff;fill-opacity:1;"><g transform="translate(116.51222, 31.914473)"><path style="stroke:none" d="M 19.859375 -4.125 L 19.859375 0 L 2.640625 0 L 2.640625 -22.25 L 19.453125 -22.25 L 19.453125 -18.109375 L 7.75 -18.109375 L 7.75 -13.28125 L 18.078125 -13.28125 L 18.078125 -9.28125 L 7.75 -9.28125 L 7.75 -4.125 Z M 19.859375 -4.125 "/></g></g><g style="fill:#ffffff;fill-opacity:1;"><g transform="translate(139.518594, 31.914473)"><path style="stroke:none" d="M 4.15625 0.25 C 3.289062 0.25 2.5625 -0.046875 1.96875 -0.640625 C 1.375 -1.234375 1.078125 -1.972656 1.078125 -2.859375 C 1.078125 -3.773438 1.375 -4.507812 1.96875 -5.0625 C 2.5625 -5.625 3.289062 -5.90625 4.15625 -5.90625 C 5.03125 -5.90625 5.765625 -5.625 6.359375 -5.0625 C 6.953125 -4.507812 7.25 -3.773438 7.25 -2.859375 C 7.25 -1.972656 6.953125 -1.234375 6.359375 -0.640625 C 5.765625 -0.046875 5.03125 0.25 4.15625 0.25 Z M 4.15625 0.25 "/></g></g><g style="fill:#ffffff;fill-opacity:1;"><g transform="translate(149.528496, 31.914473)"><path style="stroke:none" d="M 23.046875 -22.25 L 23.046875 0 L 18.8125 0 L 7.71875 -13.5 L 7.71875 0 L 2.640625 0 L 2.640625 -22.25 L 6.890625 -22.25 L 17.953125 -8.734375 L 17.953125 -22.25 Z M 23.046875 -22.25 "/></g></g></g></g></g></svg>